<svg width="1200" height="720" viewBox="0 0 1200 720" fill="none" xmlns="http://www.w3.org/2000/svg">
  <rect width="1200" height="720" fill="#E7F0EC"/>
  <rect y="520" width="1200" height="200" fill="#8DA57A"/>
  <rect x="70" y="470" width="1060" height="58" fill="#6D7F89"/>
  <rect x="110" y="486" width="980" height="10" fill="#F6F3E8" opacity="0.8"/>
  <rect x="170" y="154" width="510" height="290" rx="24" fill="#F7F2E7"/>
  <rect x="170" y="154" width="510" height="72" rx="24" fill="#2E6A78"/>
  <rect x="742" y="204" width="294" height="240" rx="18" fill="#C9734F"/>
  <rect x="776" y="120" width="226" height="104" rx="16" fill="#F4E0A6"/>
  <rect x="792" y="142" width="194" height="28" rx="14" fill="#2E6A78"/>
  <text x="889" y="162" text-anchor="middle" fill="#F7F2E7" font-family="Arial, sans-serif" font-size="28" font-weight="700">PUBLIC</text>
  <text x="889" y="196" text-anchor="middle" fill="#8D5C37" font-family="Arial, sans-serif" font-size="22">RESTROOM</text>
  <rect x="232" y="256" width="150" height="188" rx="18" fill="#C2D9DE"/>
  <rect x="468" y="256" width="150" height="188" rx="18" fill="#C2D9DE"/>
  <rect x="404" y="266" width="42" height="178" fill="#F7F2E7"/>
  <circle cx="306" cy="346" r="12" fill="#2E6A78"/>
  <circle cx="542" cy="346" r="12" fill="#2E6A78"/>
  <rect x="776" y="258" width="96" height="186" rx="14" fill="#F6F3E8"/>
  <rect x="906" y="258" width="96" height="186" rx="14" fill="#F6F3E8"/>
  <circle cx="824" cy="308" r="16" fill="#2E6A78"/>
  <rect x="811" y="328" width="26" height="74" rx="13" fill="#2E6A78"/>
  <rect x="790" y="338" width="20" height="56" rx="10" fill="#2E6A78"/>
  <rect x="838" y="338" width="20" height="56" rx="10" fill="#2E6A78"/>
  <rect x="798" y="402" width="18" height="34" rx="9" fill="#2E6A78"/>
  <rect x="832" y="402" width="18" height="34" rx="9" fill="#2E6A78"/>
  <circle cx="954" cy="308" r="16" fill="#2E6A78"/>
  <path d="M954 326C924 326 916 354 916 380V438H992V380C992 354 984 326 954 326Z" fill="#2E6A78"/>
  <circle cx="108" cy="104" r="34" fill="#F7C76C"/>
  <text x="220" y="205" fill="#F7F2E7" font-family="Arial, sans-serif" font-size="36" font-weight="700">街边便民公厕</text>
  <text x="220" y="560" fill="#1E3B42" font-family="Arial, sans-serif" font-size="26">Street-side public restroom</text>
</svg>
