<svg width="1200" height="720" viewBox="0 0 1200 720" fill="none" xmlns="http://www.w3.org/2000/svg">
  <rect width="1200" height="720" fill="#EEF2F7"/>
  <rect y="0" width="1200" height="182" fill="#DCE5F0"/>
  <rect y="494" width="1200" height="226" fill="#CDD8E5"/>
  <rect x="210" y="134" width="780" height="408" rx="30" fill="#FBFCFE"/>
  <rect x="210" y="134" width="780" height="84" rx="30" fill="#2E4E73"/>
  <text x="600" y="188" text-anchor="middle" fill="#FBFCFE" font-family="Arial, sans-serif" font-size="36" font-weight="700">MALL WASHROOM</text>
  <rect x="278" y="256" width="164" height="236" rx="24" fill="#DCE7F2"/>
  <rect x="518" y="256" width="164" height="236" rx="24" fill="#DCE7F2"/>
  <rect x="758" y="256" width="164" height="236" rx="24" fill="#DCE7F2"/>
  <circle cx="360" cy="370" r="12" fill="#2E4E73"/>
  <circle cx="600" cy="370" r="12" fill="#2E4E73"/>
  <circle cx="840" cy="370" r="12" fill="#2E4E73"/>
  <rect x="92" y="232" width="92" height="260" rx="20" fill="#F1C7A3"/>
  <rect x="1016" y="232" width="92" height="260" rx="20" fill="#F1C7A3"/>
  <rect x="116" y="270" width="44" height="146" rx="22" fill="#FAF5EE"/>
  <rect x="1040" y="270" width="44" height="146" rx="22" fill="#FAF5EE"/>
  <rect x="286" y="554" width="628" height="20" rx="10" fill="#B2C1D4"/>
  <text x="90" y="88" fill="#2E4E73" font-family="Arial, sans-serif" font-size="38" font-weight="700">商场室内洗手间</text>
  <text x="90" y="126" fill="#4D6787" font-family="Arial, sans-serif" font-size="24">Indoor shopping mall washroom</text>
</svg>
