<svg width="1200" height="720" viewBox="0 0 1200 720" fill="none" xmlns="http://www.w3.org/2000/svg">
  <rect width="1200" height="720" fill="#E8F6EF"/>
  <rect y="470" width="1200" height="250" fill="#89C28A"/>
  <circle cx="1010" cy="116" r="50" fill="#FFE089"/>
  <path d="M0 477C194 403 309 408 503 477H0Z" fill="#AED9A6"/>
  <path d="M401 483C605 386 763 387 991 483H401Z" fill="#9DD19A"/>
  <path d="M770 488C923 431 1041 431 1200 488H770Z" fill="#B7DFAF"/>
  <rect x="414" y="206" width="376" height="232" rx="26" fill="#F7F1E4"/>
  <rect x="414" y="206" width="376" height="66" rx="26" fill="#2D7B64"/>
  <text x="602" y="249" text-anchor="middle" fill="#F7F1E4" font-family="Arial, sans-serif" font-size="34" font-weight="700">PARK RESTROOM</text>
  <rect x="478" y="292" width="98" height="146" rx="16" fill="#CDE6D3"/>
  <rect x="628" y="292" width="98" height="146" rx="16" fill="#CDE6D3"/>
  <circle cx="553" cy="362" r="10" fill="#2D7B64"/>
  <circle cx="703" cy="362" r="10" fill="#2D7B64"/>
  <path d="M195 458C195 404 241 360 295 360C349 360 395 404 395 458H195Z" fill="#4F9B62"/>
  <rect x="278" y="458" width="34" height="110" rx="17" fill="#7E5A3A"/>
  <circle cx="923" cy="320" r="58" fill="#62A95E"/>
  <circle cx="878" cy="374" r="52" fill="#77B769"/>
  <circle cx="971" cy="378" r="48" fill="#7DBD72"/>
  <rect x="914" y="394" width="24" height="148" rx="12" fill="#7E5A3A"/>
  <path d="M153 557C338 494 502 487 731 557" stroke="#D9E6B3" stroke-width="16" stroke-linecap="round"/>
  <rect x="788" y="500" width="196" height="26" rx="13" fill="#D09B62"/>
  <rect x="810" y="478" width="20" height="70" rx="10" fill="#7E5A3A"/>
  <rect x="942" y="478" width="20" height="70" rx="10" fill="#7E5A3A"/>
  <text x="120" y="120" fill="#215446" font-family="Arial, sans-serif" font-size="38" font-weight="700">公园配套卫生间</text>
  <text x="120" y="158" fill="#215446" font-family="Arial, sans-serif" font-size="24">Park service restroom</text>
</svg>
