<svg width="1200" height="720" viewBox="0 0 1200 720" fill="none" xmlns="http://www.w3.org/2000/svg">
  <rect width="1200" height="720" fill="#EAF5EE"/>
  <rect y="498" width="1200" height="222" fill="#8CBF8B"/>
  <path d="M0 508C157 449 301 441 468 508H0Z" fill="#B4D9AB"/>
  <path d="M356 512C569 415 776 418 1005 512H356Z" fill="#A7D19F"/>
  <path d="M794 516C932 460 1051 459 1200 516H794Z" fill="#BFE0B6"/>
  <rect x="152" y="252" width="896" height="168" rx="24" fill="#B86A47"/>
  <rect x="152" y="216" width="896" height="50" rx="18" fill="#8D4F35"/>
  <rect x="200" y="286" width="170" height="134" rx="16" fill="#F4EEE2"/>
  <rect x="406" y="286" width="170" height="134" rx="16" fill="#F4EEE2"/>
  <rect x="624" y="286" width="170" height="134" rx="16" fill="#F4EEE2"/>
  <rect x="830" y="286" width="170" height="134" rx="16" fill="#F4EEE2"/>
  <circle cx="290" cy="354" r="10" fill="#8D4F35"/>
  <circle cx="496" cy="354" r="10" fill="#8D4F35"/>
  <circle cx="714" cy="354" r="10" fill="#8D4F35"/>
  <circle cx="920" cy="354" r="10" fill="#8D4F35"/>
  <rect x="478" y="112" width="244" height="84" rx="16" fill="#F5D989"/>
  <text x="600" y="164" text-anchor="middle" fill="#7B5030" font-family="Arial, sans-serif" font-size="36" font-weight="700">沙河源公园</text>
  <path d="M166 564C341 521 520 518 692 564" stroke="#E5EEC4" stroke-width="20" stroke-linecap="round"/>
  <path d="M694 564C806 545 922 546 1030 564" stroke="#E5EEC4" stroke-width="20" stroke-linecap="round"/>
  <circle cx="170" cy="146" r="40" fill="#FFD87B"/>
  <circle cx="1042" cy="154" r="52" fill="#62A85C"/>
  <circle cx="996" cy="202" r="46" fill="#74B867"/>
  <circle cx="1086" cy="204" r="42" fill="#7CC16E"/>
  <rect x="1030" y="216" width="24" height="120" rx="12" fill="#7A5C3C"/>
  <circle cx="158" cy="238" r="54" fill="#67A660"/>
  <circle cx="118" cy="290" r="44" fill="#7ABB6E"/>
  <circle cx="206" cy="294" r="40" fill="#7EBF71"/>
  <rect x="148" y="294" width="20" height="112" rx="10" fill="#7A5C3C"/>
  <text x="132" y="96" fill="#245845" font-family="Arial, sans-serif" font-size="38" font-weight="700">木文化主题城市公园</text>
  <text x="132" y="136" fill="#245845" font-family="Arial, sans-serif" font-size="24">Shaheyuan Park scene illustration</text>
</svg>
